<mxfile host="app.diagrams.net" agent="Mozilla/5.0 (Windows NT 10.0; Win64; x64) AppleWebKit/537.36 (KHTML, like Gecko) Chrome/130.0.0.0 Safari/537.36" version="24.8.4">
  <diagram name="Page-1" id="WwKgZMz-8q5pfuE014Sc">
    <mxGraphModel dx="1909" dy="1302" grid="1" gridSize="10" guides="1" tooltips="1" connect="1" arrows="1" fold="1" page="1" pageScale="1" pageWidth="850" pageHeight="1100" math="0" shadow="0">
      <root>
        <mxCell id="0" />
        <mxCell id="1" parent="0" />
        <mxCell id="9HfjFoyilfDGEWrhcbGG-1" value="Library Management System" style="whiteSpace=wrap;strokeWidth=2;" vertex="1" parent="1">
          <mxGeometry x="582" y="20" width="206" height="66" as="geometry" />
        </mxCell>
        <mxCell id="9HfjFoyilfDGEWrhcbGG-2" value="Entities" style="whiteSpace=wrap;strokeWidth=2;" vertex="1" parent="1">
          <mxGeometry x="171" y="136" width="115" height="49" as="geometry" />
        </mxCell>
        <mxCell id="9HfjFoyilfDGEWrhcbGG-3" value="processes" style="whiteSpace=wrap;strokeWidth=2;" vertex="1" parent="1">
          <mxGeometry x="621" y="136" width="129" height="49" as="geometry" />
        </mxCell>
        <mxCell id="9HfjFoyilfDGEWrhcbGG-4" value="Relationships" style="whiteSpace=wrap;strokeWidth=2;" vertex="1" parent="1">
          <mxGeometry x="1689" y="136" width="154" height="49" as="geometry" />
        </mxCell>
        <mxCell id="9HfjFoyilfDGEWrhcbGG-5" value="Library" style="whiteSpace=wrap;strokeWidth=2;" vertex="1" parent="1">
          <mxGeometry x="20" y="244" width="110" height="49" as="geometry" />
        </mxCell>
        <mxCell id="9HfjFoyilfDGEWrhcbGG-6" value="Book" style="whiteSpace=wrap;strokeWidth=2;" vertex="1" parent="1">
          <mxGeometry x="180" y="244" width="95" height="49" as="geometry" />
        </mxCell>
        <mxCell id="9HfjFoyilfDGEWrhcbGG-7" value="User" style="whiteSpace=wrap;strokeWidth=2;" vertex="1" parent="1">
          <mxGeometry x="325" y="244" width="92" height="49" as="geometry" />
        </mxCell>
        <mxCell id="9HfjFoyilfDGEWrhcbGG-8" value="Borrowing Process" style="whiteSpace=wrap;strokeWidth=2;" vertex="1" parent="1">
          <mxGeometry x="468" y="244" width="189" height="49" as="geometry" />
        </mxCell>
        <mxCell id="9HfjFoyilfDGEWrhcbGG-9" value="Returning processes" style="whiteSpace=wrap;strokeWidth=2;" vertex="1" parent="1">
          <mxGeometry x="707" y="244" width="202" height="49" as="geometry" />
        </mxCell>
        <mxCell id="9HfjFoyilfDGEWrhcbGG-10" value="User Interaction with Borrowing Process" style="whiteSpace=wrap;strokeWidth=2;" vertex="1" parent="1">
          <mxGeometry x="959" y="235" width="212" height="66" as="geometry" />
        </mxCell>
        <mxCell id="9HfjFoyilfDGEWrhcbGG-11" value="User Interaction with Returning Process" style="whiteSpace=wrap;strokeWidth=2;" vertex="1" parent="1">
          <mxGeometry x="1221" y="235" width="212" height="66" as="geometry" />
        </mxCell>
        <mxCell id="9HfjFoyilfDGEWrhcbGG-12" value="Borrowing Process interacts with Book" style="whiteSpace=wrap;strokeWidth=2;" vertex="1" parent="1">
          <mxGeometry x="1483" y="235" width="258" height="66" as="geometry" />
        </mxCell>
        <mxCell id="9HfjFoyilfDGEWrhcbGG-13" value="Returning Process interacts with Book" style="whiteSpace=wrap;strokeWidth=2;" vertex="1" parent="1">
          <mxGeometry x="1792" y="235" width="255" height="66" as="geometry" />
        </mxCell>
        <mxCell id="9HfjFoyilfDGEWrhcbGG-14" value="Library Manages User" style="whiteSpace=wrap;strokeWidth=2;" vertex="1" parent="1">
          <mxGeometry x="2096" y="244" width="212" height="49" as="geometry" />
        </mxCell>
        <mxCell id="9HfjFoyilfDGEWrhcbGG-15" value="Library Manages Books" style="whiteSpace=wrap;strokeWidth=2;" vertex="1" parent="1">
          <mxGeometry x="2359" y="244" width="221" height="49" as="geometry" />
        </mxCell>
        <mxCell id="9HfjFoyilfDGEWrhcbGG-16" value="" style="curved=1;startArrow=none;endArrow=block;exitX=0;exitY=0.7;entryX=0.49;entryY=0.01;rounded=0;" edge="1" parent="1" source="9HfjFoyilfDGEWrhcbGG-1" target="9HfjFoyilfDGEWrhcbGG-2">
          <mxGeometry relative="1" as="geometry">
            <Array as="points">
              <mxPoint x="228" y="111" />
            </Array>
          </mxGeometry>
        </mxCell>
        <mxCell id="9HfjFoyilfDGEWrhcbGG-17" value="" style="curved=1;startArrow=none;endArrow=block;exitX=0.5;exitY=1;entryX=0.5;entryY=0.01;rounded=0;" edge="1" parent="1" source="9HfjFoyilfDGEWrhcbGG-1" target="9HfjFoyilfDGEWrhcbGG-3">
          <mxGeometry relative="1" as="geometry">
            <Array as="points" />
          </mxGeometry>
        </mxCell>
        <mxCell id="9HfjFoyilfDGEWrhcbGG-18" value="" style="curved=1;startArrow=none;endArrow=block;exitX=1;exitY=0.59;entryX=0.5;entryY=0.01;rounded=0;" edge="1" parent="1" source="9HfjFoyilfDGEWrhcbGG-1" target="9HfjFoyilfDGEWrhcbGG-4">
          <mxGeometry relative="1" as="geometry">
            <Array as="points">
              <mxPoint x="1766" y="111" />
            </Array>
          </mxGeometry>
        </mxCell>
        <mxCell id="9HfjFoyilfDGEWrhcbGG-19" value="" style="curved=1;startArrow=none;endArrow=block;exitX=0;exitY=0.88;entryX=0.5;entryY=-0.01;rounded=0;" edge="1" parent="1" source="9HfjFoyilfDGEWrhcbGG-2" target="9HfjFoyilfDGEWrhcbGG-5">
          <mxGeometry relative="1" as="geometry">
            <Array as="points">
              <mxPoint x="75" y="210" />
            </Array>
          </mxGeometry>
        </mxCell>
        <mxCell id="9HfjFoyilfDGEWrhcbGG-20" value="" style="curved=1;startArrow=none;endArrow=block;exitX=0.49;exitY=1;entryX=0.5;entryY=-0.01;rounded=0;" edge="1" parent="1" source="9HfjFoyilfDGEWrhcbGG-2" target="9HfjFoyilfDGEWrhcbGG-6">
          <mxGeometry relative="1" as="geometry">
            <Array as="points" />
          </mxGeometry>
        </mxCell>
        <mxCell id="9HfjFoyilfDGEWrhcbGG-21" value="" style="curved=1;startArrow=none;endArrow=block;exitX=0.99;exitY=0.9;entryX=0.5;entryY=-0.01;rounded=0;" edge="1" parent="1" source="9HfjFoyilfDGEWrhcbGG-2" target="9HfjFoyilfDGEWrhcbGG-7">
          <mxGeometry relative="1" as="geometry">
            <Array as="points">
              <mxPoint x="371" y="210" />
            </Array>
          </mxGeometry>
        </mxCell>
        <mxCell id="9HfjFoyilfDGEWrhcbGG-22" value="" style="curved=1;startArrow=none;endArrow=block;exitX=0.03;exitY=1;entryX=0.5;entryY=-0.01;rounded=0;" edge="1" parent="1" source="9HfjFoyilfDGEWrhcbGG-3" target="9HfjFoyilfDGEWrhcbGG-8">
          <mxGeometry relative="1" as="geometry">
            <Array as="points">
              <mxPoint x="562" y="210" />
            </Array>
          </mxGeometry>
        </mxCell>
        <mxCell id="9HfjFoyilfDGEWrhcbGG-23" value="" style="curved=1;startArrow=none;endArrow=block;exitX=0.97;exitY=1;entryX=0.5;entryY=-0.01;rounded=0;" edge="1" parent="1" source="9HfjFoyilfDGEWrhcbGG-3" target="9HfjFoyilfDGEWrhcbGG-9">
          <mxGeometry relative="1" as="geometry">
            <Array as="points">
              <mxPoint x="808" y="210" />
            </Array>
          </mxGeometry>
        </mxCell>
        <mxCell id="9HfjFoyilfDGEWrhcbGG-24" value="" style="curved=1;startArrow=none;endArrow=block;exitX=0;exitY=0.61;entryX=0.5;entryY=0;rounded=0;" edge="1" parent="1" source="9HfjFoyilfDGEWrhcbGG-4" target="9HfjFoyilfDGEWrhcbGG-10">
          <mxGeometry relative="1" as="geometry">
            <Array as="points">
              <mxPoint x="1065" y="210" />
            </Array>
          </mxGeometry>
        </mxCell>
        <mxCell id="9HfjFoyilfDGEWrhcbGG-25" value="" style="curved=1;startArrow=none;endArrow=block;exitX=0;exitY=0.68;entryX=0.5;entryY=0;rounded=0;" edge="1" parent="1" source="9HfjFoyilfDGEWrhcbGG-4" target="9HfjFoyilfDGEWrhcbGG-11">
          <mxGeometry relative="1" as="geometry">
            <Array as="points">
              <mxPoint x="1327" y="210" />
            </Array>
          </mxGeometry>
        </mxCell>
        <mxCell id="9HfjFoyilfDGEWrhcbGG-26" value="" style="curved=1;startArrow=none;endArrow=block;exitX=0.01;exitY=1;entryX=0.5;entryY=0;rounded=0;" edge="1" parent="1" source="9HfjFoyilfDGEWrhcbGG-4" target="9HfjFoyilfDGEWrhcbGG-12">
          <mxGeometry relative="1" as="geometry">
            <Array as="points">
              <mxPoint x="1613" y="210" />
            </Array>
          </mxGeometry>
        </mxCell>
        <mxCell id="9HfjFoyilfDGEWrhcbGG-27" value="" style="curved=1;startArrow=none;endArrow=block;exitX=0.99;exitY=1;entryX=0.5;entryY=0;rounded=0;" edge="1" parent="1" source="9HfjFoyilfDGEWrhcbGG-4" target="9HfjFoyilfDGEWrhcbGG-13">
          <mxGeometry relative="1" as="geometry">
            <Array as="points">
              <mxPoint x="1919" y="210" />
            </Array>
          </mxGeometry>
        </mxCell>
        <mxCell id="9HfjFoyilfDGEWrhcbGG-28" value="" style="curved=1;startArrow=none;endArrow=block;exitX=1;exitY=0.68;entryX=0.5;entryY=-0.01;rounded=0;" edge="1" parent="1" source="9HfjFoyilfDGEWrhcbGG-4" target="9HfjFoyilfDGEWrhcbGG-14">
          <mxGeometry relative="1" as="geometry">
            <Array as="points">
              <mxPoint x="2203" y="210" />
            </Array>
          </mxGeometry>
        </mxCell>
        <mxCell id="9HfjFoyilfDGEWrhcbGG-29" value="" style="curved=1;startArrow=none;endArrow=block;exitX=1;exitY=0.61;entryX=0.5;entryY=-0.01;rounded=0;" edge="1" parent="1" source="9HfjFoyilfDGEWrhcbGG-4" target="9HfjFoyilfDGEWrhcbGG-15">
          <mxGeometry relative="1" as="geometry">
            <Array as="points">
              <mxPoint x="2469" y="210" />
            </Array>
          </mxGeometry>
        </mxCell>
      </root>
    </mxGraphModel>
  </diagram>
</mxfile>
